<mxfile host="65bd71144e">
    <diagram id="pIdPme4Nm0xvre0Ik8aM" name="Page-1">
        <mxGraphModel dx="1980" dy="1307" grid="1" gridSize="10" guides="1" tooltips="1" connect="1" arrows="1" fold="1" page="1" pageScale="1" pageWidth="827" pageHeight="1169" math="0" shadow="0">
            <root>
                <mxCell id="0"/>
                <mxCell id="1" parent="0"/>
                <mxCell id="sIqKvO81EYCHSxp63ALs-54" value="" style="rounded=0;whiteSpace=wrap;html=1;strokeColor=#7F00FF;glass=0;fillColor=none;movable=1;resizable=1;rotatable=1;deletable=1;editable=1;connectable=1;" parent="1" vertex="1">
                    <mxGeometry x="40" y="90" width="690" height="640" as="geometry"/>
                </mxCell>
                <mxCell id="sIqKvO81EYCHSxp63ALs-53" value="" style="rounded=0;whiteSpace=wrap;html=1;strokeColor=#00FFFF;glass=0;gradientColor=none;fillColor=none;" parent="1" vertex="1">
                    <mxGeometry x="780" y="90" width="690" height="640" as="geometry"/>
                </mxCell>
                <mxCell id="sIqKvO81EYCHSxp63ALs-6" style="edgeStyle=orthogonalEdgeStyle;rounded=1;orthogonalLoop=1;jettySize=auto;html=1;entryX=0;entryY=0.5;entryDx=0;entryDy=0;endArrow=none;endFill=0;" parent="1" source="sIqKvO81EYCHSxp63ALs-1" target="sIqKvO81EYCHSxp63ALs-4" edge="1">
                    <mxGeometry relative="1" as="geometry">
                        <Array as="points">
                            <mxPoint x="110" y="210"/>
                        </Array>
                    </mxGeometry>
                </mxCell>
                <mxCell id="sIqKvO81EYCHSxp63ALs-7" style="edgeStyle=orthogonalEdgeStyle;rounded=1;orthogonalLoop=1;jettySize=auto;html=1;entryX=0;entryY=0.5;entryDx=0;entryDy=0;endArrow=none;endFill=0;" parent="1" source="sIqKvO81EYCHSxp63ALs-1" target="sIqKvO81EYCHSxp63ALs-5" edge="1">
                    <mxGeometry relative="1" as="geometry">
                        <Array as="points">
                            <mxPoint x="110" y="290"/>
                        </Array>
                    </mxGeometry>
                </mxCell>
                <mxCell id="sIqKvO81EYCHSxp63ALs-1" value="game" style="rounded=1;whiteSpace=wrap;html=1;strokeColor=#FF0000;" parent="1" vertex="1">
                    <mxGeometry x="50" y="100" width="120" height="60" as="geometry"/>
                </mxCell>
                <mxCell id="sIqKvO81EYCHSxp63ALs-3" style="edgeStyle=orthogonalEdgeStyle;rounded=1;orthogonalLoop=1;jettySize=auto;html=1;entryX=1;entryY=0.5;entryDx=0;entryDy=0;endArrow=none;endFill=0;" parent="1" source="sIqKvO81EYCHSxp63ALs-2" target="sIqKvO81EYCHSxp63ALs-1" edge="1">
                    <mxGeometry relative="1" as="geometry"/>
                </mxCell>
                <mxCell id="sIqKvO81EYCHSxp63ALs-2" value="set" style="rounded=1;whiteSpace=wrap;html=1;strokeColor=#FF0000;" parent="1" vertex="1">
                    <mxGeometry x="210" y="100" width="120" height="60" as="geometry"/>
                </mxCell>
                <mxCell id="sIqKvO81EYCHSxp63ALs-4" value="get" style="rounded=1;whiteSpace=wrap;html=1;strokeColor=#FF0000;" parent="1" vertex="1">
                    <mxGeometry x="210" y="180" width="120" height="60" as="geometry"/>
                </mxCell>
                <mxCell id="sIqKvO81EYCHSxp63ALs-5" value="msg" style="rounded=1;whiteSpace=wrap;html=1;strokeColor=#FF0000;" parent="1" vertex="1">
                    <mxGeometry x="210" y="260" width="120" height="60" as="geometry"/>
                </mxCell>
                <mxCell id="sIqKvO81EYCHSxp63ALs-8" value="variable_name" style="whiteSpace=wrap;html=1;rounded=1;strokeColor=#00FF00;" parent="1" vertex="1">
                    <mxGeometry x="340" y="100" width="120" height="60" as="geometry"/>
                </mxCell>
                <mxCell id="sIqKvO81EYCHSxp63ALs-9" value="variable_name" style="rounded=1;whiteSpace=wrap;html=1;strokeColor=#00FF00;" parent="1" vertex="1">
                    <mxGeometry x="340" y="180" width="120" height="60" as="geometry"/>
                </mxCell>
                <mxCell id="sIqKvO81EYCHSxp63ALs-51" style="edgeStyle=orthogonalEdgeStyle;rounded=1;orthogonalLoop=1;jettySize=auto;html=1;entryX=0;entryY=0.5;entryDx=0;entryDy=0;endArrow=none;endFill=0;dashed=1;shape=link;strokeColor=#FF9933;" parent="1" source="sIqKvO81EYCHSxp63ALs-10" target="sIqKvO81EYCHSxp63ALs-42" edge="1">
                    <mxGeometry relative="1" as="geometry"/>
                </mxCell>
                <mxCell id="sIqKvO81EYCHSxp63ALs-10" value="msg_content" style="rounded=1;whiteSpace=wrap;html=1;strokeColor=#00FF00;" parent="1" vertex="1">
                    <mxGeometry x="340" y="260" width="120" height="60" as="geometry"/>
                </mxCell>
                <mxCell id="sIqKvO81EYCHSxp63ALs-14" value="variable_value" style="rounded=1;whiteSpace=wrap;html=1;strokeColor=#00FF00;" parent="1" vertex="1">
                    <mxGeometry x="470" y="100" width="120" height="60" as="geometry"/>
                </mxCell>
                <mxCell id="sIqKvO81EYCHSxp63ALs-49" value="if push" style="edgeStyle=orthogonalEdgeStyle;rounded=1;orthogonalLoop=1;jettySize=auto;html=1;entryX=0;entryY=0.5;entryDx=0;entryDy=0;endArrow=none;endFill=0;shape=link;dashed=1;strokeColor=#FF9933;fontColor=#FF9933;" parent="1" source="sIqKvO81EYCHSxp63ALs-20" target="sIqKvO81EYCHSxp63ALs-23" edge="1">
                    <mxGeometry relative="1" as="geometry">
                        <mxPoint x="870" y="130" as="targetPoint"/>
                    </mxGeometry>
                </mxCell>
                <mxCell id="sIqKvO81EYCHSxp63ALs-20" value="push" style="rounded=1;whiteSpace=wrap;html=1;strokeColor=#0000FF;" parent="1" vertex="1">
                    <mxGeometry x="600" y="100" width="120" height="60" as="geometry"/>
                </mxCell>
                <mxCell id="sIqKvO81EYCHSxp63ALs-23" value="game" style="rounded=1;whiteSpace=wrap;html=1;strokeColor=#FF0000;" parent="1" vertex="1">
                    <mxGeometry x="790" y="100" width="120" height="60" as="geometry"/>
                </mxCell>
                <mxCell id="sIqKvO81EYCHSxp63ALs-24" value="var" style="rounded=1;whiteSpace=wrap;html=1;strokeColor=#FF0000;" parent="1" vertex="1">
                    <mxGeometry x="920" y="100" width="120" height="60" as="geometry"/>
                </mxCell>
                <mxCell id="sIqKvO81EYCHSxp63ALs-25" value="variable_name" style="whiteSpace=wrap;html=1;rounded=1;strokeColor=#00FF00;" parent="1" vertex="1">
                    <mxGeometry x="1050" y="100" width="120" height="60" as="geometry"/>
                </mxCell>
                <mxCell id="sIqKvO81EYCHSxp63ALs-26" value="new_value" style="rounded=1;whiteSpace=wrap;html=1;strokeColor=#00FF00;" parent="1" vertex="1">
                    <mxGeometry x="1180" y="100" width="120" height="60" as="geometry"/>
                </mxCell>
                <mxCell id="sIqKvO81EYCHSxp63ALs-50" style="edgeStyle=orthogonalEdgeStyle;rounded=1;orthogonalLoop=1;jettySize=auto;html=1;entryX=1;entryY=0.5;entryDx=0;entryDy=0;endArrow=none;endFill=0;dashed=1;shape=link;strokeColor=#0000FF;" parent="1" source="sIqKvO81EYCHSxp63ALs-32" target="sIqKvO81EYCHSxp63ALs-9" edge="1">
                    <mxGeometry relative="1" as="geometry"/>
                </mxCell>
                <mxCell id="sIqKvO81EYCHSxp63ALs-32" value="game" style="rounded=1;whiteSpace=wrap;html=1;strokeColor=#FF0000;" parent="1" vertex="1">
                    <mxGeometry x="790" y="180" width="120" height="60" as="geometry"/>
                </mxCell>
                <mxCell id="sIqKvO81EYCHSxp63ALs-33" value="var" style="rounded=1;whiteSpace=wrap;html=1;strokeColor=#FF0000;" parent="1" vertex="1">
                    <mxGeometry x="920" y="180" width="120" height="60" as="geometry"/>
                </mxCell>
                <mxCell id="sIqKvO81EYCHSxp63ALs-34" value="variable_name" style="whiteSpace=wrap;html=1;rounded=1;strokeColor=#00FF00;" parent="1" vertex="1">
                    <mxGeometry x="1050" y="180" width="120" height="60" as="geometry"/>
                </mxCell>
                <mxCell id="sIqKvO81EYCHSxp63ALs-35" value="new_value" style="rounded=1;whiteSpace=wrap;html=1;strokeColor=#00FF00;" parent="1" vertex="1">
                    <mxGeometry x="1180" y="180" width="120" height="60" as="geometry"/>
                </mxCell>
                <mxCell id="sIqKvO81EYCHSxp63ALs-42" value="game" style="rounded=1;whiteSpace=wrap;html=1;strokeColor=#FF0000;" parent="1" vertex="1">
                    <mxGeometry x="790" y="260" width="120" height="60" as="geometry"/>
                </mxCell>
                <mxCell id="sIqKvO81EYCHSxp63ALs-43" value="msg" style="whiteSpace=wrap;html=1;strokeColor=#FF0000;rounded=1;" parent="1" vertex="1">
                    <mxGeometry x="920" y="260" width="120" height="60" as="geometry"/>
                </mxCell>
                <mxCell id="sIqKvO81EYCHSxp63ALs-45" value="sender" style="whiteSpace=wrap;html=1;rounded=1;strokeColor=#00FF00;" parent="1" vertex="1">
                    <mxGeometry x="1050" y="260" width="120" height="60" as="geometry"/>
                </mxCell>
                <mxCell id="sIqKvO81EYCHSxp63ALs-46" value="msg_content" style="rounded=1;whiteSpace=wrap;html=1;strokeColor=#00FF00;" parent="1" vertex="1">
                    <mxGeometry x="1180" y="260" width="120" height="60" as="geometry"/>
                </mxCell>
                <mxCell id="sIqKvO81EYCHSxp63ALs-62" style="edgeStyle=orthogonalEdgeStyle;rounded=1;orthogonalLoop=1;jettySize=auto;html=1;entryX=0;entryY=0.5;entryDx=0;entryDy=0;strokeColor=#FFFFFF;fontColor=#FFFFFF;endArrow=none;endFill=0;" parent="1" source="sIqKvO81EYCHSxp63ALs-56" target="sIqKvO81EYCHSxp63ALs-57" edge="1">
                    <mxGeometry relative="1" as="geometry"/>
                </mxCell>
                <mxCell id="sIqKvO81EYCHSxp63ALs-56" value="player" style="rounded=1;whiteSpace=wrap;html=1;glass=0;sketch=0;strokeColor=#FF0000;fontColor=#FFFFFF;fillColor=default;gradientColor=none;strokeWidth=1;" parent="1" vertex="1">
                    <mxGeometry x="50" y="350" width="120" height="60" as="geometry"/>
                </mxCell>
                <mxCell id="sIqKvO81EYCHSxp63ALs-59" style="edgeStyle=orthogonalEdgeStyle;rounded=1;orthogonalLoop=1;jettySize=auto;html=1;entryX=0;entryY=0.5;entryDx=0;entryDy=0;strokeColor=#FFFFFF;fontColor=#FFFFFF;endArrow=none;endFill=0;" parent="1" source="sIqKvO81EYCHSxp63ALs-57" target="sIqKvO81EYCHSxp63ALs-58" edge="1">
                    <mxGeometry relative="1" as="geometry"/>
                </mxCell>
                <mxCell id="sIqKvO81EYCHSxp63ALs-61" style="edgeStyle=orthogonalEdgeStyle;rounded=1;orthogonalLoop=1;jettySize=auto;html=1;entryX=0;entryY=0.5;entryDx=0;entryDy=0;strokeColor=#FFFFFF;fontColor=#FFFFFF;endArrow=none;endFill=0;" parent="1" source="sIqKvO81EYCHSxp63ALs-57" target="sIqKvO81EYCHSxp63ALs-60" edge="1">
                    <mxGeometry relative="1" as="geometry">
                        <Array as="points">
                            <mxPoint x="270" y="460"/>
                        </Array>
                    </mxGeometry>
                </mxCell>
                <mxCell id="sIqKvO81EYCHSxp63ALs-57" value="set" style="rounded=1;whiteSpace=wrap;html=1;glass=0;sketch=0;strokeColor=#FF0000;fontColor=#FFFFFF;fillColor=default;gradientColor=none;strokeWidth=1;" parent="1" vertex="1">
                    <mxGeometry x="210" y="350" width="120" height="60" as="geometry"/>
                </mxCell>
                <mxCell id="sIqKvO81EYCHSxp63ALs-58" value="name" style="rounded=1;whiteSpace=wrap;html=1;glass=0;sketch=0;strokeColor=#FF0000;strokeWidth=1;fontColor=#FFFFFF;fillColor=default;gradientColor=none;" parent="1" vertex="1">
                    <mxGeometry x="340" y="350" width="120" height="60" as="geometry"/>
                </mxCell>
                <mxCell id="sIqKvO81EYCHSxp63ALs-60" value="color" style="rounded=1;whiteSpace=wrap;html=1;glass=0;sketch=0;strokeColor=#FF0000;strokeWidth=1;fontColor=#FFFFFF;fillColor=default;gradientColor=none;" parent="1" vertex="1">
                    <mxGeometry x="340" y="430" width="120" height="60" as="geometry"/>
                </mxCell>
                <mxCell id="sIqKvO81EYCHSxp63ALs-64" style="edgeStyle=orthogonalEdgeStyle;rounded=1;orthogonalLoop=1;jettySize=auto;html=1;entryX=0.5;entryY=1;entryDx=0;entryDy=0;strokeColor=#FFFFFF;fontColor=#FFFFFF;endArrow=none;endFill=0;" parent="1" source="sIqKvO81EYCHSxp63ALs-63" target="sIqKvO81EYCHSxp63ALs-56" edge="1">
                    <mxGeometry relative="1" as="geometry"/>
                </mxCell>
                <mxCell id="sIqKvO81EYCHSxp63ALs-63" value="join" style="rounded=1;whiteSpace=wrap;html=1;glass=0;sketch=0;strokeColor=#FF0000;strokeWidth=1;fontColor=#FFFFFF;fillColor=default;gradientColor=none;" parent="1" vertex="1">
                    <mxGeometry x="210" y="510" width="120" height="60" as="geometry"/>
                </mxCell>
                <mxCell id="sIqKvO81EYCHSxp63ALs-65" value="name" style="rounded=1;whiteSpace=wrap;html=1;glass=0;sketch=0;strokeColor=#00FF00;strokeWidth=1;fontColor=#FFFFFF;fillColor=default;gradientColor=none;" parent="1" vertex="1">
                    <mxGeometry x="470" y="350" width="120" height="60" as="geometry"/>
                </mxCell>
                <mxCell id="sIqKvO81EYCHSxp63ALs-67" value="color" style="rounded=1;whiteSpace=wrap;html=1;glass=0;sketch=0;strokeColor=#00FF00;strokeWidth=1;fontColor=#FFFFFF;fillColor=default;gradientColor=none;" parent="1" vertex="1">
                    <mxGeometry x="470" y="430" width="120" height="60" as="geometry"/>
                </mxCell>
                <mxCell id="sIqKvO81EYCHSxp63ALs-69" value="" style="rounded=0;whiteSpace=wrap;html=1;strokeColor=#00FFFF;glass=0;gradientColor=none;fillColor=none;" parent="1" vertex="1">
                    <mxGeometry x="40" y="780" width="690" height="640" as="geometry"/>
                </mxCell>
                <mxCell id="sIqKvO81EYCHSxp63ALs-70" value="" style="rounded=0;whiteSpace=wrap;html=1;strokeColor=#7F00FF;glass=0;fillColor=none;movable=1;resizable=1;rotatable=1;deletable=1;editable=1;connectable=1;" parent="1" vertex="1">
                    <mxGeometry x="780" y="780" width="690" height="640" as="geometry"/>
                </mxCell>
                <mxCell id="sIqKvO81EYCHSxp63ALs-71" value="from client" style="rounded=0;whiteSpace=wrap;html=1;glass=0;sketch=0;strokeColor=#9933FF;strokeWidth=1;fontColor=#FFFFFF;fillColor=none;gradientColor=none;" parent="1" vertex="1">
                    <mxGeometry x="30" width="70" height="20" as="geometry"/>
                </mxCell>
                <mxCell id="sIqKvO81EYCHSxp63ALs-72" value="from server" style="rounded=0;whiteSpace=wrap;html=1;glass=0;sketch=0;strokeColor=#00FFFF;strokeWidth=1;fontColor=#FFFFFF;fillColor=none;gradientColor=none;" parent="1" vertex="1">
                    <mxGeometry x="110" width="70" height="20" as="geometry"/>
                </mxCell>
                <mxCell id="sIqKvO81EYCHSxp63ALs-73" value="static" style="rounded=1;whiteSpace=wrap;html=1;glass=0;sketch=0;strokeColor=#FF0000;strokeWidth=1;fontColor=#FFFFFF;fillColor=default;gradientColor=none;" parent="1" vertex="1">
                    <mxGeometry x="190" width="40" height="20" as="geometry"/>
                </mxCell>
                <mxCell id="sIqKvO81EYCHSxp63ALs-74" value="actual data" style="rounded=1;whiteSpace=wrap;html=1;glass=0;sketch=0;strokeColor=#00FF00;strokeWidth=1;fontColor=#FFFFFF;fillColor=default;gradientColor=none;" parent="1" vertex="1">
                    <mxGeometry x="240" width="70" height="20" as="geometry"/>
                </mxCell>
                <mxCell id="sIqKvO81EYCHSxp63ALs-76" value="optional" style="rounded=1;whiteSpace=wrap;html=1;glass=0;sketch=0;strokeColor=#0000FF;strokeWidth=1;fontColor=#FFFFFF;fillColor=default;gradientColor=none;" parent="1" vertex="1">
                    <mxGeometry x="320" width="50" height="20" as="geometry"/>
                </mxCell>
                <mxCell id="sIqKvO81EYCHSxp63ALs-77" value="broadcast" style="endArrow=none;html=1;rounded=1;strokeColor=#FF9933;fontColor=#FFFFFF;dashed=1;shape=link;" parent="1" edge="1">
                    <mxGeometry width="50" height="50" relative="1" as="geometry">
                        <mxPoint x="380" y="10" as="sourcePoint"/>
                        <mxPoint x="460" y="10" as="targetPoint"/>
                    </mxGeometry>
                </mxCell>
                <mxCell id="sIqKvO81EYCHSxp63ALs-78" value="single" style="endArrow=none;html=1;rounded=1;strokeColor=#0000FF;fontColor=#FFFFFF;dashed=1;shape=link;" parent="1" edge="1">
                    <mxGeometry width="50" height="50" relative="1" as="geometry">
                        <mxPoint x="470" y="9.91" as="sourcePoint"/>
                        <mxPoint x="550" y="9.91" as="targetPoint"/>
                    </mxGeometry>
                </mxCell>
                <mxCell id="sIqKvO81EYCHSxp63ALs-81" style="edgeStyle=orthogonalEdgeStyle;rounded=1;orthogonalLoop=1;jettySize=auto;html=1;entryX=0.5;entryY=1;entryDx=0;entryDy=0;strokeColor=#FFFFFF;fontColor=#FFFFFF;endArrow=none;endFill=0;" parent="1" source="sIqKvO81EYCHSxp63ALs-80" target="sIqKvO81EYCHSxp63ALs-56" edge="1">
                    <mxGeometry relative="1" as="geometry"/>
                </mxCell>
                <mxCell id="sIqKvO81EYCHSxp63ALs-80" value="exit" style="rounded=1;whiteSpace=wrap;html=1;glass=0;sketch=0;strokeColor=#FF0000;strokeWidth=1;fontColor=#FFFFFF;fillColor=default;gradientColor=none;" parent="1" vertex="1">
                    <mxGeometry x="210" y="590" width="120" height="60" as="geometry"/>
                </mxCell>
                <mxCell id="sIqKvO81EYCHSxp63ALs-95" style="edgeStyle=orthogonalEdgeStyle;shape=link;rounded=1;orthogonalLoop=1;jettySize=auto;html=1;entryX=0;entryY=0.5;entryDx=0;entryDy=0;dashed=1;strokeColor=#0000FF;fontColor=#FFFFFF;endArrow=none;endFill=0;" parent="1" source="sIqKvO81EYCHSxp63ALs-83" target="sIqKvO81EYCHSxp63ALs-92" edge="1">
                    <mxGeometry relative="1" as="geometry"/>
                </mxCell>
                <mxCell id="sIqKvO81EYCHSxp63ALs-83" value="open" style="rounded=1;whiteSpace=wrap;html=1;glass=0;sketch=0;strokeColor=#FF0000;strokeWidth=1;fontColor=#FFFFFF;fillColor=default;gradientColor=none;" parent="1" vertex="1">
                    <mxGeometry x="340" y="510" width="120" height="60" as="geometry"/>
                </mxCell>
                <mxCell id="sIqKvO81EYCHSxp63ALs-86" style="edgeStyle=orthogonalEdgeStyle;rounded=1;orthogonalLoop=1;jettySize=auto;html=1;entryX=0;entryY=0.5;entryDx=0;entryDy=0;strokeColor=#FFFFFF;fontColor=#FFFFFF;endArrow=none;endFill=0;" parent="1" source="sIqKvO81EYCHSxp63ALs-84" target="sIqKvO81EYCHSxp63ALs-85" edge="1">
                    <mxGeometry relative="1" as="geometry"/>
                </mxCell>
                <mxCell id="gf187AlxV17LRz1DVGYA-8" style="edgeStyle=orthogonalEdgeStyle;rounded=1;orthogonalLoop=1;jettySize=auto;html=1;entryX=0;entryY=0.5;entryDx=0;entryDy=0;strokeColor=#FFFFFF;fontColor=#FFFFFF;endArrow=none;endFill=0;" parent="1" source="sIqKvO81EYCHSxp63ALs-84" target="gf187AlxV17LRz1DVGYA-7" edge="1">
                    <mxGeometry relative="1" as="geometry">
                        <Array as="points">
                            <mxPoint x="110" y="970"/>
                        </Array>
                    </mxGeometry>
                </mxCell>
                <mxCell id="sIqKvO81EYCHSxp63ALs-84" value="game" style="rounded=1;whiteSpace=wrap;html=1;glass=0;sketch=0;strokeColor=#FF0000;strokeWidth=1;fontColor=#FFFFFF;fillColor=default;gradientColor=none;" parent="1" vertex="1">
                    <mxGeometry x="50" y="790" width="120" height="60" as="geometry"/>
                </mxCell>
                <mxCell id="sIqKvO81EYCHSxp63ALs-88" style="edgeStyle=orthogonalEdgeStyle;rounded=1;orthogonalLoop=1;jettySize=auto;html=1;entryX=0;entryY=0.5;entryDx=0;entryDy=0;strokeColor=#FFFFFF;fontColor=#FFFFFF;endArrow=none;endFill=0;" parent="1" source="sIqKvO81EYCHSxp63ALs-85" target="sIqKvO81EYCHSxp63ALs-87" edge="1">
                    <mxGeometry relative="1" as="geometry"/>
                </mxCell>
                <mxCell id="sIqKvO81EYCHSxp63ALs-90" style="edgeStyle=orthogonalEdgeStyle;rounded=1;orthogonalLoop=1;jettySize=auto;html=1;entryX=0;entryY=0.5;entryDx=0;entryDy=0;strokeColor=#FFFFFF;fontColor=#FFFFFF;endArrow=none;endFill=0;" parent="1" source="sIqKvO81EYCHSxp63ALs-85" target="sIqKvO81EYCHSxp63ALs-89" edge="1">
                    <mxGeometry relative="1" as="geometry">
                        <Array as="points">
                            <mxPoint x="270" y="900"/>
                        </Array>
                    </mxGeometry>
                </mxCell>
                <mxCell id="sIqKvO81EYCHSxp63ALs-85" value="end" style="rounded=1;whiteSpace=wrap;html=1;glass=0;sketch=0;strokeColor=#FF0000;strokeWidth=1;fontColor=#FFFFFF;fillColor=default;gradientColor=none;" parent="1" vertex="1">
                    <mxGeometry x="210" y="790" width="120" height="60" as="geometry"/>
                </mxCell>
                <mxCell id="sIqKvO81EYCHSxp63ALs-87" value="finished" style="rounded=1;whiteSpace=wrap;html=1;glass=0;sketch=0;strokeColor=#FF0000;strokeWidth=1;fontColor=#FFFFFF;fillColor=default;gradientColor=none;" parent="1" vertex="1">
                    <mxGeometry x="340" y="790" width="120" height="60" as="geometry"/>
                </mxCell>
                <mxCell id="sIqKvO81EYCHSxp63ALs-89" value="player_left" style="rounded=1;whiteSpace=wrap;html=1;glass=0;sketch=0;strokeColor=#FF0000;strokeWidth=1;fontColor=#FFFFFF;fillColor=default;gradientColor=none;" parent="1" vertex="1">
                    <mxGeometry x="340" y="870" width="120" height="60" as="geometry"/>
                </mxCell>
                <mxCell id="sIqKvO81EYCHSxp63ALs-91" value="player_name" style="rounded=1;whiteSpace=wrap;html=1;glass=0;sketch=0;strokeColor=#00FF00;strokeWidth=1;fontColor=#FFFFFF;fillColor=default;gradientColor=none;" parent="1" vertex="1">
                    <mxGeometry x="470" y="870" width="120" height="60" as="geometry"/>
                </mxCell>
                <mxCell id="sIqKvO81EYCHSxp63ALs-92" value="player" style="rounded=1;whiteSpace=wrap;html=1;glass=0;sketch=0;strokeColor=#FF0000;strokeWidth=1;fontColor=#FFFFFF;fillColor=default;gradientColor=none;" parent="1" vertex="1">
                    <mxGeometry x="790" y="510" width="120" height="60" as="geometry"/>
                </mxCell>
                <mxCell id="sIqKvO81EYCHSxp63ALs-94" value="entered" style="rounded=1;whiteSpace=wrap;html=1;glass=0;sketch=0;strokeColor=#FF0000;strokeWidth=1;fontColor=#FFFFFF;fillColor=default;gradientColor=none;" parent="1" vertex="1">
                    <mxGeometry x="920" y="510" width="120" height="60" as="geometry"/>
                </mxCell>
                <mxCell id="sIqKvO81EYCHSxp63ALs-97" value="waitlist" style="rounded=1;whiteSpace=wrap;html=1;glass=0;sketch=0;strokeColor=#FF0000;strokeWidth=1;fontColor=#FFFFFF;fillColor=default;gradientColor=none;" parent="1" vertex="1">
                    <mxGeometry x="1050" y="510" width="120" height="60" as="geometry"/>
                </mxCell>
                <mxCell id="sIqKvO81EYCHSxp63ALs-99" value="Server" style="text;html=1;strokeColor=none;fillColor=none;align=center;verticalAlign=middle;whiteSpace=wrap;rounded=0;glass=0;sketch=0;strokeWidth=1;fontColor=#9933FF;" parent="1" vertex="1">
                    <mxGeometry x="40" y="70" width="40" height="20" as="geometry"/>
                </mxCell>
                <mxCell id="sIqKvO81EYCHSxp63ALs-100" value="Server" style="text;html=1;strokeColor=none;fillColor=none;align=center;verticalAlign=middle;whiteSpace=wrap;rounded=0;glass=0;sketch=0;strokeWidth=1;fontColor=#9933FF;" parent="1" vertex="1">
                    <mxGeometry x="780" y="760" width="40" height="20" as="geometry"/>
                </mxCell>
                <mxCell id="sIqKvO81EYCHSxp63ALs-101" value="Client" style="text;html=1;strokeColor=none;fillColor=none;align=center;verticalAlign=middle;whiteSpace=wrap;rounded=0;glass=0;sketch=0;strokeWidth=1;fontColor=#00FFFF;" parent="1" vertex="1">
                    <mxGeometry x="780" y="70" width="40" height="20" as="geometry"/>
                </mxCell>
                <mxCell id="sIqKvO81EYCHSxp63ALs-102" value="Client" style="text;html=1;strokeColor=none;fillColor=none;align=center;verticalAlign=middle;whiteSpace=wrap;rounded=0;glass=0;sketch=0;strokeWidth=1;fontColor=#00FFFF;" parent="1" vertex="1">
                    <mxGeometry x="40" y="760" width="40" height="20" as="geometry"/>
                </mxCell>
                <mxCell id="gf187AlxV17LRz1DVGYA-7" value="start" style="rounded=1;whiteSpace=wrap;html=1;strokeColor=#FF0000;fontColor=#FFFFFF;" parent="1" vertex="1">
                    <mxGeometry x="210" y="940" width="120" height="60" as="geometry"/>
                </mxCell>
            </root>
        </mxGraphModel>
    </diagram>
</mxfile>